<svg width="26" height="26" viewBox="0 0 26 26" fill="none" xmlns="http://www.w3.org/2000/svg">
<path d="M20.43 18.02C20.79 17.43 21 16.74 21 16C21 13.79 19.21 12 17 12C14.79 12 13 13.79 13 16C13 18.21 14.79 20 17 20C17.74 20 18.43 19.78 19.02 19.43L21.59 22L23 20.59L20.43 18.02ZM17 18C15.9 18 15 17.1 15 16C15 14.9 15.9 14 17 14C18.1 14 19 14.9 19 16C19 17.1 18.1 18 17 18Z" fill="#9F8F84"/>
<path d="M11.35 14.009C8.62 13.909 3 15.269 3 17.999V19.999H12.54C10.07 17.239 11.31 14.109 11.35 14.009Z" fill="#9F8F84"/>
<path d="M11 12C13.2091 12 15 10.2091 15 8C15 5.79086 13.2091 4 11 4C8.79086 4 7 5.79086 7 8C7 10.2091 8.79086 12 11 12Z" fill="#9F8F84"/>
</svg>
