<svg width="24" height="24" viewBox="0 0 24 24" fill="none" xmlns="http://www.w3.org/2000/svg">
<path d="M20.75 18.25C21.1642 18.25 21.5 18.5858 21.5 19C21.5 19.4142 21.1642 19.75 20.75 19.75H3.75C3.33579 19.75 3 19.4142 3 19C3 18.5858 3.33579 18.25 3.75 18.25H20.75ZM15.75 11.25C16.1642 11.25 16.5 11.5858 16.5 12C16.5 12.4142 16.1642 12.75 15.75 12.75H3.75C3.33579 12.75 3 12.4142 3 12C3 11.5858 3.33579 11.25 3.75 11.25H15.75ZM20.75 4.25C21.1642 4.25 21.5 4.58579 21.5 5C21.5 5.41421 21.1642 5.75 20.75 5.75H3.75C3.33579 5.75 3 5.41421 3 5C3 4.58579 3.33579 4.25 3.75 4.25H20.75Z" fill="#303030"/>
</svg>
