<svg width="24" height="24" viewBox="0 0 24 24" fill="none" xmlns="http://www.w3.org/2000/svg">
<path fill-rule="evenodd" clip-rule="evenodd" d="M5.21967 5.21967C5.51256 4.92678 5.98732 4.92678 6.28022 5.21967L11.8837 10.8232L17.4853 5.2226C17.7782 4.93011 18.2531 4.92987 18.5458 5.2226C18.8386 5.51536 18.8383 5.99022 18.5458 6.28315L12.9443 11.8837L18.5458 17.4853C18.8384 17.7782 18.8386 18.2531 18.5458 18.5458C18.2531 18.8386 17.7782 18.8384 17.4853 18.5458L11.8837 12.9443L6.28022 18.5488C5.98732 18.8417 5.51256 18.8417 5.21967 18.5488C4.92681 18.2559 4.92679 17.7811 5.21967 17.4882L10.8232 11.8837L5.21967 6.28022C4.92678 5.98732 4.92678 5.51256 5.21967 5.21967Z" fill="#303030"/>
</svg>
